<svg role="img" aria-label="Mon Bilan Solaire" width="267" height="56" viewBox="0 0 267 56" fill="none" xmlns="http://www.w3.org/2000/svg">
<g clip-path="url(#clip0_mbs)">
<path d="M7.19 34.04L4.02 33.57C-1.07 32.81 -1.44 25.62 3.54 24.33L10.37 22.56C10.59 23.04 10.69 23.57 10.69 24.08C10.69 25.55 9.85 27 8.29 27.62C6.64 28.27 5.89 29.69 5.89 31.11C5.89 32.21 6.35 33.31 7.2 34.04H7.19Z" fill="black"/>
<path d="M16.07 46.15L13.47 47.74C9.09 50.43 4.18 45.16 7.16 40.98L11.18 35.34C12.45 35.98 13.26 37.31 13.26 38.73C13.26 39.33 13.12 39.95 12.8 40.53C11.3 43.29 13.5 46.09 16.06 46.15H16.07Z" fill="black"/>
<path d="M11.46 9.24003L17.96 12.34C17.48 13.9 16 15.02 14.34 15.02C13.94 15.02 13.53 14.96 13.12 14.82C10.36 13.9 8.11001 16.12 8.11001 18.47C8.11001 18.72 8.14001 18.98 8.19001 19.23L5.89001 16.63C2.48001 12.78 6.81001 7.03003 11.46 9.24003Z" fill="black"/>
<path d="M18.31 8.62002L18.21 4.85001C18.08 -0.289985 25.09 -1.90998 27.23 2.77002L30.25 9.39002C29.65 9.75002 28.97 9.93002 28.29 9.93002C27.04 9.93002 25.8 9.33002 25.05 8.12002C23.29 5.26002 19.37 6.04002 18.3 8.63002L18.31 8.62002Z" fill="black"/>
<path d="M28.29 50.56C29.2 50.56 30.1 50.25 30.8 49.64L29.83 52.53C28.2 57.41 21.05 56.53 20.65 51.41L20.11 44.57C22.06 44.18 24.13 45.38 24.57 47.53C24.98 49.55 26.63 50.57 28.28 50.57L28.29 50.56Z" fill="black"/>
<path d="M34.7 6.29001C34.03 6.29001 33.35 6.47001 32.75 6.85001L35.22 3.75001C38.42 -0.269988 44.84 2.99001 43.46 7.95001L41.52 14.94C39.81 14.6 38.46 13.09 38.46 11.24C38.46 11.05 38.48 10.85 38.5 10.66C38.89 8.05001 36.8 6.29001 34.69 6.29001H34.7Z" fill="black"/>
<path d="M45.44 45.67C47.32 50.45 41.29 54.37 37.68 50.71L32.85 45.8C33.57 44.96 34.64 44.48 35.73 44.48C36.54 44.48 37.36 44.74 38.08 45.31C40.68 47.37 44.04 45.39 44.24 42.64L45.44 45.67Z" fill="black"/>
<path d="M45.08 14.62L48.95 13.83C53.99 12.81 56.8 19.43 52.56 22.35L46.67 26.4C46.15 25.73 45.89 24.9 45.89 24.08C45.89 23.05 46.3 22.02 47.17 21.25C49.81 18.91 48.08 14.91 45.07 14.62H45.08Z" fill="black"/>
<path d="M50.29 39.24L43.32 38.57C43.39 36.68 44.9 34.98 47.01 34.93C49.37 34.87 50.7 32.98 50.7 31.1C50.7 30.23 50.42 29.35 49.82 28.67L52.99 30.39C57.51 32.84 55.41 39.73 50.29 39.24Z" fill="black"/>
<path d="M68.93 55.35V30.07H81.36C85.98 30.07 88.56 32.95 88.56 36.51C88.56 39.69 86.51 41.82 84.16 42.31C86.85 42.73 89.05 45.42 89.05 48.53C89.05 52.43 86.43 55.35 81.7 55.35H68.93ZM73.37 40.53H80.46C82.73 40.53 84.02 39.17 84.02 37.27C84.02 35.37 82.73 33.97 80.46 33.97H73.37V40.53ZM73.37 51.45H80.65C83.08 51.45 84.52 50.12 84.52 47.93C84.52 46.04 83.19 44.44 80.65 44.44H73.37V51.45Z" fill="black"/>
<path d="M92.9 31.55C92.9 30.18 94.04 29.09 95.36 29.09C96.68 29.09 97.82 30.19 97.82 31.55C97.82 32.91 96.72 34.01 95.36 34.01C94 34.01 92.9 32.91 92.9 31.55ZM93.39 55.35V37.04H97.37V55.35H93.39Z" fill="black"/>
<path d="M102.53 55.35V30.07H106.51V55.35H102.53Z" fill="black"/>
<path d="M122.85 55.35V53.38C121.49 54.93 119.36 55.81 116.94 55.81C113.95 55.81 110.57 53.8 110.57 49.75C110.57 45.7 113.94 43.8 116.94 43.8C119.4 43.8 121.53 44.6 122.85 46.15V43.42C122.85 41.3 121.11 40.01 118.57 40.01C116.52 40.01 114.74 40.77 113.15 42.32L111.52 39.55C113.64 37.54 116.3 36.6 119.21 36.6C123.27 36.6 126.83 38.31 126.83 43.23V55.36H122.85V55.35ZM122.85 48.42C121.94 47.17 120.23 46.53 118.49 46.53C116.25 46.53 114.59 47.82 114.59 49.83C114.59 51.84 116.26 53.09 118.49 53.09C120.23 53.09 121.94 52.45 122.85 51.2V48.43V48.42Z" fill="black"/>
<path d="M144.36 55.35V43.9C144.36 41.06 142.92 40.11 140.68 40.11C138.63 40.11 136.89 41.32 135.98 42.57V55.34H132V37.03H135.98V39.53C137.19 38.09 139.54 36.58 142.42 36.58C146.36 36.58 148.33 38.7 148.33 42.45V55.34H144.35L144.36 55.35Z" fill="black"/>
<path d="M154.45 48.38C156.19 50.24 158.92 51.87 162.45 51.87C165.98 51.87 167.53 50.09 167.53 48.42C167.53 46.15 164.84 45.46 161.77 44.67C157.64 43.65 152.79 42.43 152.79 37.09C152.79 32.92 156.47 29.7 162 29.7C165.94 29.7 169.13 30.95 171.48 33.23L168.94 36.53C166.97 34.56 164.28 33.65 161.63 33.65C158.98 33.65 157.35 34.9 157.35 36.79C157.35 38.68 159.93 39.41 162.92 40.16C167.09 41.22 172.05 42.51 172.05 48.01C172.05 52.22 169.09 55.82 162.27 55.82C157.61 55.82 154.24 54.19 152 51.8L154.46 48.39L154.45 48.38Z" fill="black"/>
<path d="M174.89 46.18C174.89 40.95 178.49 36.59 184.29 36.59C190.09 36.59 193.73 40.95 193.73 46.18C193.73 51.41 190.17 55.81 184.29 55.81C178.41 55.81 174.89 51.45 174.89 46.18ZM189.6 46.18C189.6 42.96 187.7 40.12 184.29 40.12C180.88 40.12 179.02 42.96 179.02 46.18C179.02 49.4 180.91 52.28 184.29 52.28C187.67 52.28 189.6 49.44 189.6 46.18Z" fill="black"/>
<path d="M197.76 55.35V30.07H201.74V55.35H197.76Z" fill="black"/>
<path d="M218.08 55.35V53.38C216.72 54.93 214.59 55.81 212.17 55.81C209.18 55.81 205.8 53.8 205.8 49.75C205.8 45.7 209.17 43.8 212.17 43.8C214.63 43.8 216.76 44.6 218.08 46.15V43.42C218.08 41.3 216.34 40.01 213.8 40.01C211.75 40.01 209.97 40.77 208.38 42.32L206.75 39.55C208.87 37.54 211.53 36.6 214.44 36.6C218.5 36.6 222.06 38.31 222.06 43.23V55.36H218.08V55.35ZM218.08 48.42C217.17 47.17 215.46 46.53 213.72 46.53C211.48 46.53 209.82 47.82 209.82 49.83C209.82 51.84 211.49 53.09 213.72 53.09C215.46 53.09 217.17 52.45 218.08 51.2V48.43V48.42Z" fill="black"/>
<path d="M226.73 31.55C226.73 30.18 227.87 29.09 229.19 29.09C230.51 29.09 231.65 30.19 231.65 31.55C231.65 32.91 230.55 34.01 229.19 34.01C227.83 34.01 226.73 32.91 226.73 31.55ZM227.22 55.35V37.04H231.2V55.35H227.22Z" fill="black"/>
<path d="M236.36 55.35V37.04H240.34V39.73C241.71 37.99 243.9 36.62 246.29 36.62V40.56C245.95 40.48 245.53 40.45 245.04 40.45C243.37 40.45 241.14 41.59 240.34 42.88V55.35H236.36Z" fill="black"/>
<path d="M257.67 36.59C263.17 36.59 266.69 40.8 266.69 46.56V47.51H252.55C252.85 50.28 254.94 52.55 258.39 52.55C260.17 52.55 262.29 51.83 263.58 50.54L265.4 53.15C263.58 54.89 260.89 55.8 257.97 55.8C252.47 55.8 248.38 51.97 248.38 46.17C248.38 40.86 252.25 36.58 257.67 36.58V36.59ZM252.52 44.7H262.83C262.75 42.54 261.28 39.85 257.67 39.85C254.26 39.85 252.71 42.47 252.52 44.7Z" fill="black"/>
<path d="M91.06 25.84V6.7L83.29 25.84H81.39L73.66 6.7V25.84H69.23V0.559998H75.48L82.34 17.58L89.24 0.559998H95.49V25.84H91.06Z" fill="black"/>
<path d="M99.64 16.67C99.64 11.44 103.24 7.07999 109.04 7.07999C114.84 7.07999 118.48 11.44 118.48 16.67C118.48 21.9 114.92 26.3 109.04 26.3C103.16 26.3 99.64 21.94 99.64 16.67ZM114.35 16.67C114.35 13.45 112.45 10.61 109.04 10.61C105.63 10.61 103.77 13.45 103.77 16.67C103.77 19.89 105.66 22.77 109.04 22.77C112.42 22.77 114.35 19.93 114.35 16.67Z" fill="black"/>
<path d="M134.87 25.84V14.39C134.87 11.55 133.43 10.6 131.19 10.6C129.14 10.6 127.4 11.81 126.49 13.06V25.83H122.51V7.52999H126.49V10.03C127.7 8.58999 130.05 7.07999 132.93 7.07999C136.87 7.07999 138.84 9.19999 138.84 12.95V25.84H134.86H134.87Z" fill="black"/>
</g>
<defs>
<clipPath id="clip0_mbs">
<rect width="266.69" height="55.81" fill="white"/>
</clipPath>
</defs>
</svg>
